<svg width="30" height="30" viewBox="0 0 30 30" fill="none" xmlns="http://www.w3.org/2000/svg">
<g clip-path="url(#clip0_283_97)">
<path d="M15.0015 30.003C23.2866 30.003 30.003 23.2866 30.003 15.0015C30.003 6.71641 23.2866 0 15.0015 0C6.71641 0 0 6.71641 0 15.0015C0 23.2866 6.71641 30.003 15.0015 30.003Z" fill="white"/>
<path d="M29.503 15.0015C29.503 23.0105 23.0105 29.503 15.0015 29.503C6.99255 29.503 0.5 23.0105 0.5 15.0015C0.5 6.99255 6.99255 0.5 15.0015 0.5C23.0105 0.5 29.503 6.99255 29.503 15.0015Z" stroke="#3375BB" stroke-opacity="0.15"/>
<path d="M15.0015 7.1538L15.4118 6.61977C15.2937 6.52899 15.1489 6.4798 15 6.4798C14.851 6.4798 14.7062 6.52899 14.5881 6.61977L15.0015 7.1538ZM22.0557 9.22661H22.7285C22.7297 9.13736 22.7132 9.04877 22.68 8.96589C22.6467 8.88305 22.5974 8.80761 22.5348 8.74392C22.4723 8.68027 22.3977 8.62961 22.3155 8.59489C22.2332 8.56017 22.1449 8.54211 22.0557 8.5417V9.22661ZM15.0015 23.6368L14.6273 24.198C14.7376 24.2718 14.8673 24.3112 15 24.3112C15.1326 24.3112 15.2623 24.2718 15.3726 24.198L15.0015 23.6368ZM7.95327 9.22661V8.55077C7.86402 8.55117 7.77571 8.56924 7.69346 8.60395C7.61121 8.63864 7.53668 8.6893 7.47411 8.75299C7.41155 8.81667 7.36224 8.89211 7.32899 8.97495C7.29574 9.0578 7.27924 9.14642 7.28046 9.23567L7.95327 9.22661ZM14.5911 7.68483C17.6445 10.0503 21.1415 9.89945 22.0587 9.89945V8.55077C21.1083 8.55077 18.0639 8.67145 15.4208 6.61977L14.5911 7.68483ZM21.3858 9.21455C21.3346 12.3404 21.2018 14.546 20.9484 16.1782C20.6949 17.8105 20.3449 18.764 19.8833 19.4459C19.4216 20.1278 18.8303 20.5713 17.9643 21.0872C17.0984 21.6032 15.9911 22.1764 14.6273 23.0786L15.3876 24.198C16.679 23.3381 17.7531 22.7889 18.6674 22.2428C19.5886 21.7411 20.388 21.0427 21.0087 20.1971C21.6121 19.292 22.0255 18.0851 22.291 16.3834C22.5565 14.6817 22.6923 12.3917 22.7436 9.23567L21.3858 9.21455ZM15.3876 23.0786C14.0329 22.1734 12.9286 21.6122 12.0687 21.0902C11.2088 20.5683 10.6175 20.1519 10.1528 19.4459C9.68818 18.7399 9.31102 17.8015 9.05155 16.1782C8.79205 14.555 8.6774 12.3404 8.62611 9.21455L7.28046 9.23567C7.33174 12.3917 7.47052 14.6878 7.73302 16.3834C7.99552 18.0791 8.3968 19.286 9.0123 20.1971C9.63008 21.0432 10.4276 21.7418 11.3476 22.2428C12.2528 22.7889 13.336 23.3381 14.6273 24.198L15.3876 23.0786ZM7.95327 9.89945C8.85843 9.89945 12.3584 10.0503 15.4118 7.68483L14.5881 6.61977C11.939 8.67145 8.89465 8.55077 7.95027 8.55077L7.95327 9.89945Z" fill="#3375BB"/>
</g>
<defs>
<clipPath id="clip0_283_97">
<rect width="30" height="30" fill="white"/>
</clipPath>
</defs>
</svg>
