<svg width="28" height="17" viewBox="0 0 28 17" fill="none" xmlns="http://www.w3.org/2000/svg">
<g clip-path="url(#clip0_283_87)">
<path d="M5.97358 3.33165C10.3756 -1.06888 17.5127 -1.06888 21.9147 3.33165L22.4445 3.86126C22.6646 4.08129 22.6646 4.43802 22.4445 4.65805L20.6322 6.46974C20.5221 6.57976 20.3437 6.57976 20.2336 6.46974L19.5046 5.74094C16.4336 2.67101 11.4546 2.67101 8.38367 5.74094L7.60292 6.52143C7.49287 6.63144 7.31444 6.63144 7.20439 6.52143L5.39209 4.70973C5.17199 4.48971 5.17199 4.13297 5.39209 3.91295L5.97358 3.33165ZM25.6627 7.07843L27.2756 8.69085C27.4957 8.91087 27.4957 9.2676 27.2756 9.48763L20.0027 16.7582C19.7826 16.9782 19.4258 16.9783 19.2057 16.7582C19.2057 16.7582 19.2057 16.7582 19.2057 16.7582L14.0438 11.5981C13.9888 11.5431 13.8995 11.5431 13.8445 11.5981C13.8445 11.5981 13.8445 11.5981 13.8445 11.5981L8.68276 16.7582C8.46266 16.9782 8.10581 16.9783 7.88571 16.7582C7.8857 16.7582 7.8857 16.7582 7.8857 16.7582L0.612585 9.48754C0.392485 9.26751 0.392485 8.91078 0.612585 8.69075L2.22554 7.07833C2.44564 6.85831 2.80249 6.85831 3.0226 7.07833L8.18454 12.2386C8.23957 12.2936 8.32878 12.2936 8.38381 12.2386C8.38381 12.2386 8.38381 12.2386 8.38381 12.2386L13.5455 7.07833C13.7656 6.8583 14.1224 6.85829 14.3426 7.07832C14.3426 7.07832 14.3426 7.07832 14.3426 7.07833L19.5045 12.2386C19.5595 12.2936 19.6487 12.2936 19.7038 12.2386L24.8656 7.07843C25.0857 6.8584 25.4426 6.8584 25.6627 7.07843Z" fill="#3B99FC"/>
</g>
<defs>
<clipPath id="clip0_283_87">
<rect width="27" height="17" fill="white" transform="translate(0.444092)"/>
</clipPath>
</defs>
</svg>
